# xmcd
#
# Track frame offsets:
#	150
#	11219
#	26742
#	40890
#	63797
#	80713
#	95239
#	112071
#	127980
#	141274
#	160604
#	181350
#	207173
#
# Disc length: 2940 seconds
#
# Revision: 1
# Processed by: cddbd v1.5.2PL0 Copyright (c) Steve Scherf et al.
# Submitted via: audiograbber 1.83.01
#
DISCID=b50b7a0d
DTITLE=Mr. John Kampen and friends - Songs for Carsten vol. 3
DYEAR=1900
DGENRE=Country
TTITLE0=Durch den wilden Süden-Siverados
TTITLE1=La Isla Bonita-Miss Curly
TTITLE2=Das mit dir könnte geh´n-André Klingenberg
TTITLE3=Nothing compares to You-Carey Lee
TTITLE4=A beautiful memory-Eddy Gee
TTITLE5=Wenn Träume Flügel kriegen-Mr. John Kampen
TTITLE6=Mama did raise one fool after all-Electa Winter
TTITLE7=For ever and ever Amen-Smokie J. Jones
TTITLE8=Ein Sommer lang-Barbara Schiller
TTITLE9=You are my strongest weakness-Curly and John
TTITLE10=Streets of Heaven-Mel D
TTITLE11=Nikita-Mr. John Kampen
TTITLE12=Du bist alles für mich-André Klingenberg
EXTD=
EXTT0=
EXTT1=
EXTT2=
EXTT3=
EXTT4=
EXTT5=
EXTT6=
EXTT7=
EXTT8=
EXTT9=
EXTT10=
EXTT11=
EXTT12=
PLAYORDER=
